<svg width="108" height="27" viewBox="0 0 108 27" fill="none" xmlns="http://www.w3.org/2000/svg">
<path fill-rule="evenodd" clip-rule="evenodd" d="M0.000199363 19.0813L3.87749 16.1111C5.93673 18.7992 8.12346 20.0379 10.5601 20.0377C12.9832 20.0376 15.1097 18.8129 17.0763 16.1457L21.0074 19.0444C18.1719 22.8898 14.644 24.9216 10.5604 24.9219C6.49035 24.9222 2.92948 22.9051 0.000199363 19.0813Z" fill="#B5AFAF"/>
<path fill-rule="evenodd" clip-rule="evenodd" d="M10.09 6.56981L3.18909 12.517L0.000584388 8.81719L10.1033 0.11065L20.1286 8.82262L16.9249 12.5093L10.09 6.56981Z" fill="#B5AFAF"/>
<path d="M47.9074 5.15306L44 5.15332L44.0011 21.434L47.9085 21.4337L47.9074 5.15306Z" fill="#B5AFAF"/>
<path fill-rule="evenodd" clip-rule="evenodd" d="M36.1056 21.4258C33.8022 21.426 31.8827 20.6796 30.3257 19.1868C28.7687 17.6726 28.0007 15.7319 28.0006 13.3645C28.0004 10.9758 28.7894 9.01357 30.3462 7.47789C31.9244 5.92084 33.8438 5.15293 36.1259 5.15277C38.941 5.15259 41.4366 6.36808 42.8869 8.26617L40.3491 10.9323C39.1332 9.63139 37.811 8.97033 36.382 8.97043C35.1664 8.97051 34.164 9.37578 33.3323 10.2076C32.5219 11.0395 32.1167 12.0846 32.1168 13.3429C32.1169 14.5586 32.5222 15.5823 33.3327 16.414C34.1645 17.2244 35.167 17.6295 36.3613 17.6295C37.9182 17.6294 39.2831 16.9468 40.4133 15.6031L43.0583 18.1409C42.3333 19.1007 41.3521 19.8898 40.1364 20.5084C38.921 21.127 37.5772 21.4257 36.1056 21.4258Z" fill="#B5AFAF"/>
<path fill-rule="evenodd" clip-rule="evenodd" d="M53.233 6.26951C53.2331 7.43845 52.2859 8.38609 51.1169 8.38617C49.9479 8.38625 49.0002 7.43873 49.0001 6.2698C49.0001 5.1009 49.9476 4.15326 51.1166 4.15318C52.2856 4.1531 53.2329 5.10062 53.233 6.26951ZM53.0704 9.36284L49.1631 9.36311L49.1639 21.248L53.0712 21.2478L53.0704 9.36284Z" fill="#B5AFAF"/>
<path fill-rule="evenodd" clip-rule="evenodd" d="M60.25 21.4803C58.3946 21.4804 56.9015 20.9047 55.7286 19.753C54.5767 18.6014 54.0005 17.1299 54.0004 15.317C54.0003 13.5042 54.5763 12.0325 55.749 10.8807C56.9222 9.72897 58.4363 9.15302 60.3131 9.1529C62.766 9.15273 64.9199 10.3469 65.9225 12.5863L62.9154 14.1647C62.3182 13.1624 61.4866 12.6505 60.3988 12.6506C59.6097 12.6507 58.9697 12.9067 58.458 13.4185C57.9674 13.9304 57.7116 14.5703 57.7116 15.3168C57.7117 16.8737 58.8421 18.0253 60.3566 18.0252C61.444 18.0251 62.4464 17.4279 62.873 16.5107L65.8803 18.3021C64.8566 20.2643 62.7454 21.4801 60.25 21.4803Z" fill="#B5AFAF"/>
<path fill-rule="evenodd" clip-rule="evenodd" d="M70.9073 5.15306L67 5.15332L67.0011 21.434L70.9084 21.4337L70.9081 17.2891L71.3658 16.8621L74.9379 21.4334L79.4833 21.4331L73.9951 14.4098L79.2079 9.54824L74.4334 9.54856L70.9078 12.8369L70.9073 5.15306Z" fill="#B5AFAF"/>
<path fill-rule="evenodd" clip-rule="evenodd" d="M81.0007 15.2818L81 5.15332L85.0705 5.15305L85.0711 15.0548C85.0713 16.825 86.1028 17.678 87.5947 17.6779C89.0648 17.6778 90.1181 16.782 90.1179 15.0544L90.1173 5.15271L94.1874 5.15244L94.1881 15.281C94.1884 19.9304 90.9243 21.6795 87.595 21.6797C84.2871 21.6799 81.001 19.9313 81.0007 15.2818Z" fill="#B5AFAF"/>
<path fill-rule="evenodd" clip-rule="evenodd" d="M102.164 21.5262C105.311 21.5259 107.862 18.7559 107.862 15.3391C107.862 11.9223 105.31 9.15263 102.163 9.15284C100.881 9.15293 99.6971 9.61322 98.7446 10.3899L98.7445 9.31589L95 9.31615L95.0011 26.0852L98.7456 26.085L98.7453 20.2896C99.6979 21.0661 100.882 21.5262 102.164 21.5262ZM98.7449 15.3461L98.7449 15.3333C98.7483 13.8077 99.9494 12.5719 101.431 12.5718C102.915 12.5717 104.118 13.8108 104.118 15.3393C104.118 16.8679 102.915 18.1071 101.431 18.1072C99.9497 18.1073 98.7485 16.8717 98.7449 15.3461Z" fill="#B5AFAF"/>
</svg>
