<svg width="117" height="27" viewBox="0 0 117 27" fill="none" xmlns="http://www.w3.org/2000/svg">
<path d="M32.6144 4.93701L38.207 4.93664C42.9962 4.93631 46.0244 8.02594 46.0248 12.8461C46.0251 17.6662 43.0127 20.7562 38.208 20.7566L32.6154 20.7569L32.6144 4.93701ZM38.0842 17.8676C41.0968 17.8674 42.7498 15.9361 42.7496 12.8617C42.7493 9.77192 41.0962 7.84088 38.0836 7.84109L35.8898 7.84123L35.8905 17.8677L38.0842 17.8676Z" fill="#B5AFAF"/>
<path d="M54.5975 12.3508C54.1649 12.0882 53.5933 11.9646 52.9908 11.9647C51.9093 11.9648 51.0288 12.5364 50.7971 13.587L50.7976 20.7245L47.615 20.7247L47.6143 9.19965L50.8123 9.19943L50.8123 10.3272C51.3066 9.50838 52.249 8.9367 53.3922 8.93662C53.933 8.93659 54.4273 9.0447 54.5973 9.13738L54.5975 12.3508Z" fill="#B5AFAF"/>
<path d="M61.2695 20.987C57.917 20.9872 55.6149 18.5155 55.6147 14.9776C55.6144 11.4243 57.9162 8.93686 61.2686 8.93663C64.6211 8.93641 66.9078 11.4081 66.908 14.9769C66.9082 18.5147 64.6219 20.9867 61.2695 20.987ZM61.2688 11.6557C59.6621 11.6558 58.7971 13.0463 58.7972 14.9774C58.7973 16.8777 59.678 18.2835 61.2693 18.2834C62.8605 18.2833 63.741 16.8928 63.7409 14.9771C63.7408 13.0459 62.8601 11.6556 61.2688 11.6557Z" fill="#B5AFAF"/>
<path d="M70.8133 24.973L67.6153 24.9732L67.6143 9.1842L70.8123 9.18398L70.8123 10.1418C71.3221 9.52383 72.4653 8.93669 73.7012 8.9366C77.0537 8.93638 78.9541 11.7171 78.9543 14.9769C78.9546 18.2212 77.0545 20.9867 73.702 20.9869C72.4661 20.987 71.3228 20.4 70.813 19.7821L70.8133 24.973ZM70.8128 16.8468C71.199 17.6501 72.0488 18.1908 72.9757 18.1907C74.706 18.1906 75.741 16.8001 75.7409 14.9616C75.7408 13.1077 74.7056 11.7174 72.9753 11.7175C72.0175 11.7176 71.1987 12.2892 70.8125 13.0617L70.8128 16.8468Z" fill="#B5AFAF"/>
<path d="M83.8442 20.6991L80.6154 20.6993L80.6143 3.93701L83.8431 3.93679L83.8435 10.1319C84.3533 9.5139 85.4965 8.92676 86.7325 8.92668C90.0849 8.92645 91.9699 11.6608 91.9701 14.9669C91.9703 18.2731 90.0857 20.9768 86.7333 20.977C85.4973 20.9771 84.3541 20.3901 83.8442 19.7722L83.8442 20.6991ZM83.844 16.8368C84.1994 17.6402 85.0491 18.1808 86.007 18.1808C87.7373 18.1806 88.7723 16.7902 88.7721 14.9517C88.772 13.0978 87.7368 11.7075 86.0065 11.7076C85.0796 11.7076 84.199 12.2793 83.8437 13.0518L83.844 16.8368Z" fill="#B5AFAF"/>
<path d="M99.2695 20.987C95.917 20.9872 93.6149 18.5155 93.6147 14.9776C93.6144 11.4243 95.9162 8.93686 99.2687 8.93663C102.621 8.93641 104.908 11.4081 104.908 14.9769C104.908 18.5147 102.606 20.9867 99.2695 20.987ZM99.2688 11.6557C97.6621 11.6558 96.7971 13.0463 96.7972 14.9774C96.7973 16.8777 97.678 18.2835 99.2693 18.2834C100.861 18.2833 101.741 16.8928 101.741 14.9771C101.741 13.0459 100.86 11.6556 99.2688 11.6557Z" fill="#B5AFAF"/>
<path d="M112.277 14.4982L116.48 20.4613L112.942 20.4615L110.47 16.8466L107.967 20.4619L104.615 20.4621L108.77 14.5757L104.861 8.937L108.399 8.93676L110.624 12.2118L112.88 8.93646L116.232 8.93623L112.277 14.4982Z" fill="#B5AFAF"/>
<path d="M9.19037 0.0551051L0.863641 5.41652L6.62649 10.0663L14.9996 4.8903L9.19037 0.0551051Z" fill="#B5AFAF"/>
<path d="M0.86383 14.5977L9.19129 20.0662L14.9998 15.2302L6.62606 10.0553L0.86383 14.5977Z" fill="#B5AFAF"/>
<path d="M14.8662 15.2311L20.6754 20.0663L28.9712 14.6586L23.2238 10.0551L14.8662 15.2311Z" fill="#B5AFAF"/>
<path d="M28.9713 5.46192L20.6747 0.0552741L14.8662 4.89125L23.2245 10.0661L28.9713 5.46192Z" fill="#B5AFAF"/>
<path d="M15.1929 16.1142L9.36893 20.9502L6.86606 19.3282L6.86618 21.1512L15.1936 26.1407L23.5049 21.1501L23.5048 19.3271L21.0176 20.9494L15.1929 16.1142Z" fill="#B5AFAF"/>
</svg>
