<svg width="126" height="28" viewBox="0 0 126 28" fill="none" xmlns="http://www.w3.org/2000/svg">
<path d="M23.9914 8.87305L9.96472 8.87399C9.69714 8.87401 9.48024 9.09094 9.48026 9.35852L9.48037 10.9916C9.48038 11.2592 9.69732 11.4761 9.96489 11.476L23.9915 11.4751C24.2591 11.4751 24.476 11.2581 24.476 10.9906L24.4759 9.35751C24.4759 9.08993 24.259 8.87303 23.9914 8.87305Z" fill="#B5AFAF"/>
<path d="M14.9914 15.873L0.96472 15.874C0.697141 15.874 0.480239 16.0909 0.480257 16.3585L0.480367 17.9916C0.480385 18.2592 0.697315 18.4761 0.964895 18.476L14.9915 18.4751C15.2591 18.4751 15.476 18.2581 15.476 17.9906L15.4759 16.3575C15.4759 16.0899 15.259 15.873 14.9914 15.873Z" fill="#B5AFAF"/>
<path fill-rule="evenodd" clip-rule="evenodd" d="M2.41107 10.933C2.53412 10.9648 2.66472 10.9471 2.77491 10.8838C2.88509 10.8204 2.9661 10.7165 3.00057 10.5942C3.7771 8.16294 5.43393 6.10954 7.64611 4.83669C9.85828 3.56384 12.4662 3.16339 14.9583 3.71387C15.0789 3.73871 15.2045 3.71637 15.3091 3.65144C15.4137 3.58652 15.4895 3.48395 15.5207 3.36486L15.9441 1.78429C15.9607 1.72084 15.9643 1.65469 15.9546 1.58983C15.9449 1.52497 15.9222 1.46274 15.8879 1.40687C15.8535 1.35101 15.8082 1.30267 15.7547 1.26477C15.7012 1.22687 15.6406 1.20018 15.5765 1.18632C12.4272 0.477647 9.12645 0.9818 6.33227 2.59828C3.53808 4.21476 1.45567 6.82484 0.500124 9.90825C0.482133 9.97009 0.476655 10.0349 0.484008 10.0989C0.491362 10.1629 0.5114 10.2248 0.54295 10.2809C0.574501 10.3371 0.616931 10.3864 0.667759 10.4259C0.718588 10.4655 0.776793 10.4945 0.838973 10.5113L2.41107 10.933Z" fill="#B5AFAF"/>
<path fill-rule="evenodd" clip-rule="evenodd" d="M22.2208 16.8903C22.0968 16.857 21.9647 16.8739 21.8531 16.9373C21.7414 17.0007 21.6593 17.1056 21.6245 17.2292C20.8497 19.662 19.1935 21.7174 16.9812 22.9919C14.7688 24.2664 12.16 24.668 9.66674 24.118C9.54611 24.0927 9.42037 24.1149 9.31565 24.1798C9.21092 24.2448 9.13525 24.3477 9.10434 24.467L8.68941 26.0391C8.67259 26.1026 8.66884 26.169 8.67838 26.234C8.68792 26.2991 8.71056 26.3615 8.74493 26.4176C8.7793 26.4736 8.82468 26.5221 8.87833 26.5601C8.93197 26.5982 8.99278 26.6249 9.05706 26.6387C12.2065 27.3457 15.5067 26.8406 18.3005 25.224C21.0943 23.6074 23.1769 20.9979 24.1334 17.9151C24.1516 17.8534 24.1573 17.7886 24.15 17.7247C24.1428 17.6607 24.1227 17.5989 24.0911 17.5428C24.0595 17.4867 24.017 17.4376 23.9661 17.3982C23.9151 17.3589 23.8568 17.3301 23.7946 17.3137L22.2208 16.8903Z" fill="#B5AFAF"/>
<path d="M20.0992 6.72718C20.8869 6.72713 21.5255 6.08847 21.5255 5.3007C21.5254 4.51293 20.8868 3.87436 20.099 3.87442C19.3112 3.87447 18.6727 4.51312 18.6727 5.30089C18.6728 6.08866 19.3114 6.72723 20.0992 6.72718Z" fill="#B5AFAF"/>
<path d="M5.09918 23.7272C5.88695 23.7271 6.52552 23.0885 6.52547 22.3007C6.52541 21.5129 5.88676 20.8744 5.09899 20.8744C4.31122 20.8745 3.67265 21.5131 3.6727 22.3009C3.67276 23.0887 4.31141 23.7272 5.09918 23.7272Z" fill="#B5AFAF"/>
<path fill-rule="evenodd" clip-rule="evenodd" d="M58.9682 11.253C59.4883 10.6818 60.1237 10.2275 60.8325 9.92024C61.5412 9.61297 62.3071 9.45969 63.0796 9.47055C64.5805 9.47044 65.7494 9.93453 66.4881 10.8255L66.488 10.0869C66.4929 9.98486 66.5354 9.88819 66.6073 9.8156C66.6793 9.74302 66.7756 9.69966 66.8776 9.6939L68.8563 9.69377C68.9582 9.69988 69.0543 9.74334 69.1261 9.81584C69.198 9.88834 69.2407 9.9848 69.2459 10.0868L69.2466 21.0726C69.3081 22.6228 68.8292 24.1462 67.8917 25.3823C66.8245 26.6801 65.2051 27.3375 63.0774 27.3376C60.1196 27.3378 57.7851 25.466 57.4003 22.7929C57.391 22.6964 57.4157 22.5998 57.4701 22.5196C57.5246 22.4395 57.6054 22.3809 57.6985 22.3541L59.6313 21.9C59.6415 21.8991 59.6517 21.8991 59.6618 21.9C59.7122 21.8923 59.7637 21.8947 59.8132 21.907C59.8627 21.9193 59.9092 21.9412 59.9502 21.9716C59.9911 22.002 60.0256 22.0402 60.0518 22.084C60.0779 22.1278 60.095 22.1764 60.1023 22.2269C60.1886 22.9501 60.5418 23.6151 61.0927 24.0917C61.6435 24.5682 62.3524 24.822 63.0806 24.8033C65.3913 24.8032 66.4686 23.6173 66.4684 21.1389L66.4684 20.1767C66.0444 20.6518 65.5211 21.028 64.9357 21.2786C64.3502 21.5293 63.7169 21.6482 63.0804 21.627C59.7922 21.6272 57.4069 19.0744 57.4066 15.561C57.3773 13.9814 57.9336 12.4469 58.9682 11.253ZM97.3364 9.31748L97.4398 9.31747C100.975 9.36467 103.166 11.826 103.166 15.7646C103.166 15.9734 103.154 16.1821 103.132 16.3897C103.121 16.4827 103.076 16.5684 103.007 16.6308C102.937 16.6932 102.846 16.728 102.753 16.7285L94.3486 16.7291C94.374 17.5775 94.732 18.3818 95.3453 18.9685C95.9587 19.5551 96.7782 19.877 97.6268 19.8646C98.2915 19.906 98.9506 19.7211 99.4966 19.3399C100.043 18.9587 100.443 18.4037 100.634 17.7654C100.669 17.6721 100.739 17.5959 100.829 17.5527C100.918 17.5094 101.022 17.5025 101.116 17.5333L102.788 18.1261C102.837 18.1419 102.881 18.1677 102.919 18.2019C102.957 18.236 102.987 18.2777 103.007 18.3243C103.03 18.3693 103.043 18.4184 103.047 18.4688C103.05 18.5191 103.044 18.5697 103.027 18.6174C102.648 19.741 101.918 20.713 100.944 21.3902C99.9709 22.0674 98.8056 22.4138 97.6202 22.3785C96.8303 22.3863 96.0467 22.2373 95.3148 21.9401C94.5829 21.643 93.9172 21.2036 93.3562 20.6475C92.744 20.0037 92.2666 19.2441 91.9521 18.4133C91.6376 17.5825 91.4922 16.6972 91.5246 15.8094C91.5243 11.7437 94.4786 9.3092 97.333 9.30901L97.3364 9.31748ZM49.7881 9.32067C53.3863 9.32043 55.6225 11.7919 55.6228 15.7695C55.6225 15.9783 55.6112 16.187 55.589 16.3946C55.5789 16.488 55.5345 16.5744 55.4644 16.637C55.3943 16.6996 55.3035 16.734 55.2095 16.7334L46.8054 16.734C46.829 17.5871 47.189 18.3963 47.807 18.985C48.4249 19.5737 49.2506 19.894 50.1039 19.8762C50.7687 19.9183 51.4281 19.7336 51.9743 19.3523C52.5204 18.971 52.9211 18.4157 53.1107 17.7771C53.1448 17.683 53.2145 17.6059 53.3047 17.5625C53.395 17.5191 53.4986 17.5128 53.5935 17.545L55.2723 18.1361C55.3207 18.1517 55.3653 18.1774 55.403 18.2116C55.4407 18.2458 55.4706 18.2876 55.4908 18.3343C55.5101 18.3807 55.52 18.4305 55.52 18.4808C55.52 18.5311 55.5101 18.5809 55.4909 18.6273C55.1118 19.7504 54.3822 20.722 53.4093 21.3992C52.4365 22.0763 51.2719 22.4231 50.0871 22.3885C49.2959 22.3971 48.5108 22.2485 47.7773 21.9513C47.0439 21.6542 46.3768 21.2144 45.8146 20.6575C45.2036 20.0129 44.7269 19.2532 44.4124 18.4226C44.098 17.5919 43.952 16.707 43.9831 15.8194C43.9828 11.7537 46.937 9.31917 49.7932 9.31897L49.7881 9.32067ZM37.0591 9.32152C38.6735 9.32141 39.9796 9.71265 40.947 10.4868C41.6002 11.0077 42.0848 11.7103 42.3396 12.506C42.3476 12.5398 42.3489 12.5749 42.3432 12.6092C42.3376 12.6435 42.3252 12.6763 42.3067 12.7058C42.2883 12.7352 42.2642 12.7608 42.2358 12.7808C42.2074 12.8009 42.1754 12.8152 42.1414 12.8228L40.1374 13.4853C40.0485 13.5191 39.9502 13.5191 39.8613 13.4853C39.8235 13.4678 39.7899 13.4425 39.7627 13.4109C39.7355 13.3793 39.7154 13.3423 39.7038 13.3023C39.5343 12.6535 38.9515 11.5643 37.0558 11.5644C35.7328 11.5645 34.94 12.3235 34.9401 13.0587C34.9401 13.5466 35.1926 14.1751 36.3852 14.402L38.5875 14.8152C41.049 15.3114 42.4585 16.6581 42.4586 18.5334L42.4586 18.5012C42.4587 20.3646 40.6666 22.3552 37.3361 22.3555C33.4737 22.3557 31.9557 20.1705 31.6761 18.8814C31.6668 18.814 31.6826 18.7456 31.7203 18.6891C31.7581 18.6326 31.8153 18.5919 31.881 18.5747L33.9477 17.9308C33.9847 17.9241 34.0226 17.9241 34.0595 17.9308C34.1185 17.9298 34.1768 17.9438 34.2289 17.9715C34.2664 17.9895 34.2995 18.0155 34.3258 18.0477C34.3522 18.0799 34.3711 18.1175 34.3814 18.1578C34.6424 19.3978 35.7622 20.1364 37.3732 20.1363C38.8724 20.1362 39.5551 19.3518 39.555 18.6403C39.555 17.9288 38.9468 17.4054 37.9016 17.1954L35.5841 16.7449C33.4225 16.3368 32.0756 14.9935 32.0755 13.2453C32.0753 11.1175 34.3605 9.3217 37.0591 9.32152ZM122.193 5.86844C122.298 5.87491 122.397 5.92129 122.469 5.99811C122.541 6.07493 122.581 6.17639 122.581 6.28176L122.581 9.66984L124.755 9.66969C124.859 9.67738 124.957 9.72424 125.028 9.80089C125.099 9.87754 125.139 9.97831 125.139 10.083L125.139 11.8889C125.14 11.9916 125.1 12.0904 125.027 12.1637C124.955 12.237 124.857 12.2789 124.755 12.2802L122.581 12.2804L122.582 18.3094C122.582 19.3089 122.978 19.7222 123.998 19.7222C124.23 19.7183 124.462 19.699 124.692 19.6645C124.748 19.655 124.805 19.6578 124.86 19.6728C124.914 19.6877 124.965 19.7144 125.008 19.7509C125.049 19.789 125.082 19.8351 125.104 19.8864C125.127 19.9377 125.139 19.993 125.14 20.0491L125.14 21.7431C125.14 21.8274 125.114 21.9096 125.064 21.9774C125.014 22.0453 124.943 22.095 124.862 22.1192C124.366 22.2583 123.853 22.3251 123.337 22.3175C121.159 22.3176 119.809 20.9168 119.809 18.6569L119.808 12.306L117.928 12.3061C117.826 12.2999 117.73 12.2564 117.658 12.1839C117.587 12.1113 117.545 12.0149 117.54 11.9131L117.54 10.1038C117.539 9.99837 117.579 9.89667 117.651 9.81976C117.723 9.74284 117.822 9.69656 117.928 9.69048L118.415 9.69044C119.007 9.6904 120.003 9.48366 120.003 8.07422L120.002 6.28193C120.002 6.17645 120.042 6.07475 120.114 5.99783C120.186 5.92091 120.285 5.87464 120.39 5.86856L122.193 5.86844ZM81.4007 11.3378C81.8256 10.6884 82.4121 10.1608 83.1026 9.80667C83.7932 9.45259 84.564 9.28427 85.3392 9.31828C87.4873 9.31814 89.6575 10.8308 89.6577 14.1358L89.6582 21.7861C89.653 21.8881 89.6103 21.9846 89.5385 22.0571C89.4666 22.1296 89.3705 22.1731 89.2686 22.1792L87.2883 22.1793C87.1866 22.1728 87.091 22.1292 87.0194 22.0567C86.9479 21.9842 86.9055 21.888 86.9003 21.7863L86.8998 14.3817C86.8997 13.4449 86.6066 11.866 84.6228 11.8662C83.1727 11.8663 82.1428 13.0064 82.1429 14.6598L82.1434 21.7866C82.1386 21.8885 82.0963 21.9849 82.0247 22.0574C81.9531 22.13 81.8573 22.1735 81.7555 22.1797L79.7498 22.1798C79.6479 22.1737 79.5518 22.1302 79.4799 22.0577C79.408 21.9852 79.3654 21.8888 79.3601 21.7868L79.3596 14.3822C79.3629 13.4454 79.0715 11.8598 77.086 11.8599C75.5784 11.86 74.562 12.9917 74.5621 14.6773L74.5626 21.7871C74.5574 21.8888 74.515 21.9851 74.4435 22.0575C74.372 22.13 74.2763 22.1737 74.1747 22.1802L72.196 22.1803C72.0949 22.1734 71.9998 22.1295 71.9289 22.057C71.858 21.9846 71.8162 21.8886 71.8115 21.7873L71.8107 10.0612C71.8158 9.96003 71.8577 9.86424 71.9285 9.79185C71.9993 9.71945 72.0942 9.67546 72.1952 9.66814L74.0993 9.66801C74.2009 9.67452 74.2966 9.71816 74.3681 9.79062C74.4397 9.86308 74.4821 9.95931 74.4873 10.061L74.4873 10.7674C74.9114 10.3034 75.429 9.9344 76.0059 9.68472C76.5828 9.43505 77.2061 9.31033 77.8346 9.31879C78.5568 9.2976 79.2709 9.47457 79.8995 9.83051C80.5282 10.1864 81.0474 10.7077 81.4007 11.3378ZM111.573 9.31652C112.206 9.28939 112.838 9.40658 113.419 9.65922C114 9.91187 114.517 10.2934 114.929 10.7749C115.698 11.7873 116.09 13.0366 116.036 14.3069L116.036 21.7844C116.032 21.8855 115.99 21.9815 115.92 22.054C115.849 22.1265 115.754 22.1704 115.653 22.1774L113.649 22.1775C113.547 22.1711 113.452 22.1275 113.38 22.0551C113.308 21.9826 113.265 21.8864 113.26 21.7845L113.259 14.7068C113.259 12.8553 112.388 11.9134 110.735 11.9135C110.375 11.902 110.017 11.9752 109.691 12.1274C109.365 12.2796 109.079 12.5064 108.856 12.7895C108.408 13.4342 108.182 14.2071 108.211 14.9918L108.211 21.7849C108.206 21.8866 108.164 21.9828 108.092 22.0553C108.021 22.1278 107.925 22.1714 107.823 22.1779L105.823 22.1781C105.721 22.1716 105.625 22.1279 105.554 22.0555C105.482 21.983 105.44 21.8868 105.435 21.7851L105.434 10.0505C105.438 9.94822 105.48 9.85115 105.552 9.77817C105.623 9.70519 105.72 9.66154 105.822 9.65572L107.777 9.65558C107.878 9.66213 107.973 9.70565 108.044 9.77783C108.115 9.85001 108.157 9.94579 108.161 10.0469L108.161 10.8736C108.576 10.3735 109.098 9.97363 109.689 9.70398C110.28 9.43433 110.924 9.30187 111.573 9.31652ZM63.4236 11.9421C61.4721 11.9423 60.2338 13.3298 60.234 15.5608C60.2341 17.7919 61.4573 19.1775 63.4241 19.1774C65.2994 19.1773 66.5631 17.722 66.5629 15.5604C66.5628 13.3988 65.2989 11.942 63.4236 11.9421ZM49.8086 11.8312C49.0885 11.8189 48.3898 12.0756 47.849 12.5513C47.3083 13.0269 46.9644 13.6872 46.8849 14.403L52.7632 14.4026C52.6225 12.8153 51.4942 11.8311 49.8086 11.8312ZM97.3688 11.828C96.6494 11.8169 95.9517 12.0742 95.4117 12.5497C94.8718 13.0252 94.5283 13.6848 94.4484 14.3998L100.328 14.3994C100.183 12.8121 99.0611 11.8279 97.3671 11.828L97.3688 11.828Z" fill="#B5AFAF"/>
<path d="M35.0994 1.81219L35.0997 5.75253L33.9833 5.75261L33.983 1.81227L32.4398 1.81237L32.4397 0.856934L36.6596 0.85665L36.6596 1.81209L35.0994 1.81219Z" fill="#B5AFAF"/>
<path d="M44.3234 5.76926L43.163 5.76933L42.0989 2.1611L41.0167 5.76948L39.88 5.76956L38.4397 0.856934L39.6255 0.856854L40.5389 4.39564L41.5686 0.856724L42.7544 0.856644L43.7711 4.39543L44.6551 0.856516L45.7461 0.856443L44.3234 5.76926Z" fill="#B5AFAF"/>
<path d="M47.44 5.75271L47.4397 0.856934L48.5391 0.85686L48.5395 5.75264L47.44 5.75271Z" fill="#B5AFAF"/>
<path d="M50.44 5.75271L50.4397 0.856934L51.5561 0.856859L51.5563 4.78873L53.4672 4.7886L53.4673 5.75251L50.44 5.75271Z" fill="#B5AFAF"/>
<path d="M54.44 5.75271L54.4397 0.856934L55.5476 0.856859L55.5479 5.75264L54.44 5.75271Z" fill="#B5AFAF"/>
<path d="M59.8795 5.93042C58.5242 5.93051 57.44 4.95821 57.4399 3.39799C57.4398 1.83778 58.5391 0.85686 59.8876 0.856769C61.236 0.856679 62.3254 1.82898 62.3255 3.39767C62.3256 4.96635 61.2347 5.93033 59.8795 5.93042ZM59.8792 1.75292C59.0322 1.75297 58.5392 2.45095 58.5393 3.38945C58.5394 4.32795 59.0476 5.03433 59.8794 5.03427C60.7112 5.03422 61.2007 4.3193 61.2006 3.39774C61.2006 2.47618 60.7059 1.75286 59.8876 1.75292L59.8792 1.75292Z" fill="#B5AFAF"/>
</svg>
