<svg width="103" height="45" viewBox="0 0 103 45" fill="none" xmlns="http://www.w3.org/2000/svg">
<path d="M10.7046 17.1472L14.8514 17.1469L14.8526 33.7343L10.7057 33.7346L10.7046 17.1472ZM28.2135 16.6392C25.7715 16.6393 23.7903 18.1139 23.0532 19.7727L22.961 19.7727L22.9608 17.1003L19.0444 17.1005L19.0455 33.688L23.1923 33.6877L23.1917 24.6107C23.1916 22.399 24.4355 20.0951 27.0618 20.095C29.7342 20.0948 30.1952 22.5368 30.1953 24.5181L30.1959 33.7333L34.3428 33.733L34.3421 23.3659C34.3419 20.0023 32.5447 16.6389 28.2135 16.6392ZM63.9232 26.2667C63.9233 28.4784 62.6794 30.7822 60.0531 30.7824C57.3807 30.7826 56.9197 28.3406 56.9196 26.3593L56.919 17.1441L52.7721 17.1444L52.7728 27.5115C52.7731 30.8751 54.5703 34.1924 58.9014 34.1921C61.3435 34.192 63.3246 32.7174 64.0617 31.0586L64.1539 31.0586L64.1541 33.731L68.0705 33.7308L68.0694 17.1433L63.9226 17.1436L63.9232 26.2667ZM72.3096 33.7305L76.4564 33.7302L76.4553 17.1428L72.3084 17.143L72.3096 33.7305ZM36.4614 20.7855L41.1151 20.7852L41.116 33.7326L45.2628 33.7323L45.262 20.7849L49.9157 20.7846L49.9154 17.0985L36.4612 17.0994L36.4614 20.7855ZM43.1881 14.9794C44.5704 14.9793 45.6762 13.8734 45.6761 12.4911C45.676 11.1089 44.5701 10.0031 43.1878 10.0032C41.8055 10.0033 40.6998 11.1092 40.6999 12.4915C40.7 13.8738 41.8059 14.9795 43.1881 14.9794ZM79.3581 17.1426L79.3583 20.8287L84.012 20.8284L84.0129 33.7758L88.1598 33.7755L88.1589 20.782L92.8126 20.7817L92.8123 17.0956L79.3581 17.0965L79.3581 17.1426ZM86.0851 14.9765C87.4674 14.9764 88.5731 13.8705 88.573 12.4883C88.5729 11.106 87.467 10.0002 86.0847 10.0003C84.7025 10.0004 83.5967 11.1063 83.5968 12.4886C83.5969 13.8248 84.7028 14.9766 86.0851 14.9765Z" fill="#B5AFAF"/>
</svg>
